<mxfile host="app.diagrams.net" agent="Mozilla/5.0 (Windows NT 10.0; Win64; x64; rv:144.0) Gecko/20100101 Firefox/144.0" version="28.2.8">
  <diagram name="Page-1" id="9522gvwAl9SCTMLl1KGk">
    <mxGraphModel dx="1572" dy="782" grid="1" gridSize="10" guides="1" tooltips="1" connect="1" arrows="1" fold="1" page="1" pageScale="1" pageWidth="850" pageHeight="1100" math="0" shadow="0">
      <root>
        <mxCell id="0" />
        <mxCell id="1" parent="0" />
        <mxCell id="EBFd8jl-EfVxJvivfDNM-3" value="" style="group" vertex="1" connectable="0" parent="1">
          <mxGeometry x="300" y="313" width="160" height="60" as="geometry" />
        </mxCell>
        <mxCell id="EBFd8jl-EfVxJvivfDNM-1" value="" style="shape=cylinder3;whiteSpace=wrap;html=1;boundedLbl=1;backgroundOutline=1;size=15;rotation=90;" vertex="1" parent="EBFd8jl-EfVxJvivfDNM-3">
          <mxGeometry x="50" y="-50" width="60" height="160" as="geometry" />
        </mxCell>
        <mxCell id="EBFd8jl-EfVxJvivfDNM-2" value="Stream 1" style="text;html=1;whiteSpace=wrap;strokeColor=none;fillColor=none;align=center;verticalAlign=middle;rounded=0;" vertex="1" parent="EBFd8jl-EfVxJvivfDNM-3">
          <mxGeometry x="40" y="15" width="60" height="30" as="geometry" />
        </mxCell>
        <mxCell id="EBFd8jl-EfVxJvivfDNM-4" value="" style="group" vertex="1" connectable="0" parent="1">
          <mxGeometry x="300" y="393" width="160" height="60" as="geometry" />
        </mxCell>
        <mxCell id="EBFd8jl-EfVxJvivfDNM-5" value="" style="shape=cylinder3;whiteSpace=wrap;html=1;boundedLbl=1;backgroundOutline=1;size=15;rotation=90;" vertex="1" parent="EBFd8jl-EfVxJvivfDNM-4">
          <mxGeometry x="50" y="-50" width="60" height="160" as="geometry" />
        </mxCell>
        <mxCell id="EBFd8jl-EfVxJvivfDNM-6" value="Stream 2" style="text;html=1;whiteSpace=wrap;strokeColor=none;fillColor=none;align=center;verticalAlign=middle;rounded=0;" vertex="1" parent="EBFd8jl-EfVxJvivfDNM-4">
          <mxGeometry x="40" y="15" width="60" height="30" as="geometry" />
        </mxCell>
        <mxCell id="EBFd8jl-EfVxJvivfDNM-7" value="" style="group" vertex="1" connectable="0" parent="1">
          <mxGeometry x="300" y="473" width="160" height="60" as="geometry" />
        </mxCell>
        <mxCell id="EBFd8jl-EfVxJvivfDNM-8" value="" style="shape=cylinder3;whiteSpace=wrap;html=1;boundedLbl=1;backgroundOutline=1;size=15;rotation=90;" vertex="1" parent="EBFd8jl-EfVxJvivfDNM-7">
          <mxGeometry x="50" y="-50" width="60" height="160" as="geometry" />
        </mxCell>
        <mxCell id="EBFd8jl-EfVxJvivfDNM-9" value="Stream 3" style="text;html=1;whiteSpace=wrap;strokeColor=none;fillColor=none;align=center;verticalAlign=middle;rounded=0;" vertex="1" parent="EBFd8jl-EfVxJvivfDNM-7">
          <mxGeometry x="40" y="15" width="60" height="30" as="geometry" />
        </mxCell>
        <mxCell id="EBFd8jl-EfVxJvivfDNM-10" value="" style="group" vertex="1" connectable="0" parent="1">
          <mxGeometry x="220" y="623" width="160" height="60" as="geometry" />
        </mxCell>
        <mxCell id="EBFd8jl-EfVxJvivfDNM-11" value="" style="shape=cylinder3;whiteSpace=wrap;html=1;boundedLbl=1;backgroundOutline=1;size=15;rotation=90;" vertex="1" parent="EBFd8jl-EfVxJvivfDNM-10">
          <mxGeometry x="130" y="-50" width="60" height="160" as="geometry" />
        </mxCell>
        <mxCell id="EBFd8jl-EfVxJvivfDNM-12" value="User Stream 1" style="text;html=1;whiteSpace=wrap;strokeColor=none;fillColor=none;align=center;verticalAlign=middle;rounded=0;" vertex="1" parent="EBFd8jl-EfVxJvivfDNM-10">
          <mxGeometry x="120" y="15" width="60" height="30" as="geometry" />
        </mxCell>
        <mxCell id="EBFd8jl-EfVxJvivfDNM-13" value="" style="group" vertex="1" connectable="0" parent="1">
          <mxGeometry x="300" y="713" width="160" height="60" as="geometry" />
        </mxCell>
        <mxCell id="EBFd8jl-EfVxJvivfDNM-14" value="" style="shape=cylinder3;whiteSpace=wrap;html=1;boundedLbl=1;backgroundOutline=1;size=15;rotation=90;" vertex="1" parent="EBFd8jl-EfVxJvivfDNM-13">
          <mxGeometry x="50" y="-50" width="60" height="160" as="geometry" />
        </mxCell>
        <mxCell id="EBFd8jl-EfVxJvivfDNM-15" value="User Stream 2" style="text;html=1;whiteSpace=wrap;strokeColor=none;fillColor=none;align=center;verticalAlign=middle;rounded=0;" vertex="1" parent="EBFd8jl-EfVxJvivfDNM-13">
          <mxGeometry x="40" y="15" width="60" height="30" as="geometry" />
        </mxCell>
        <mxCell id="EBFd8jl-EfVxJvivfDNM-32" value="&lt;div&gt;WS&lt;/div&gt;&lt;div&gt;Server&lt;/div&gt;" style="rounded=0;whiteSpace=wrap;html=1;" vertex="1" parent="1">
          <mxGeometry x="570" y="608" width="60" height="180" as="geometry" />
        </mxCell>
        <mxCell id="EBFd8jl-EfVxJvivfDNM-41" style="edgeStyle=orthogonalEdgeStyle;rounded=0;orthogonalLoop=1;jettySize=auto;html=1;entryX=1;entryY=0.5;entryDx=0;entryDy=0;startArrow=classic;startFill=1;" edge="1" parent="1" source="EBFd8jl-EfVxJvivfDNM-33" target="EBFd8jl-EfVxJvivfDNM-32">
          <mxGeometry relative="1" as="geometry" />
        </mxCell>
        <mxCell id="EBFd8jl-EfVxJvivfDNM-33" value="client-4" style="shape=umlActor;verticalLabelPosition=bottom;verticalAlign=top;html=1;outlineConnect=0;" vertex="1" parent="1">
          <mxGeometry x="690" y="728" width="30" height="60" as="geometry" />
        </mxCell>
        <mxCell id="EBFd8jl-EfVxJvivfDNM-42" style="edgeStyle=orthogonalEdgeStyle;rounded=0;orthogonalLoop=1;jettySize=auto;html=1;startArrow=classic;startFill=1;exitX=0;exitY=0.3333333333333333;exitDx=0;exitDy=0;exitPerimeter=0;entryX=1;entryY=0.5;entryDx=0;entryDy=0;" edge="1" parent="1" source="EBFd8jl-EfVxJvivfDNM-34" target="EBFd8jl-EfVxJvivfDNM-32">
          <mxGeometry relative="1" as="geometry">
            <mxPoint x="960" y="463" as="targetPoint" />
            <Array as="points">
              <mxPoint x="740" y="733" />
              <mxPoint x="740" y="698" />
            </Array>
          </mxGeometry>
        </mxCell>
        <mxCell id="EBFd8jl-EfVxJvivfDNM-34" value="&lt;div&gt;client-3&lt;/div&gt;" style="shape=umlActor;verticalLabelPosition=bottom;verticalAlign=top;html=1;outlineConnect=0;" vertex="1" parent="1">
          <mxGeometry x="780" y="713" width="30" height="60" as="geometry" />
        </mxCell>
        <mxCell id="EBFd8jl-EfVxJvivfDNM-40" style="edgeStyle=orthogonalEdgeStyle;rounded=0;orthogonalLoop=1;jettySize=auto;html=1;entryX=1;entryY=0.5;entryDx=0;entryDy=0;startArrow=classic;startFill=1;" edge="1" parent="1" source="EBFd8jl-EfVxJvivfDNM-35" target="EBFd8jl-EfVxJvivfDNM-32">
          <mxGeometry relative="1" as="geometry">
            <Array as="points">
              <mxPoint x="740" y="653" />
              <mxPoint x="740" y="698" />
            </Array>
          </mxGeometry>
        </mxCell>
        <mxCell id="EBFd8jl-EfVxJvivfDNM-35" value="client-2" style="shape=umlActor;verticalLabelPosition=bottom;verticalAlign=top;html=1;outlineConnect=0;" vertex="1" parent="1">
          <mxGeometry x="780" y="623" width="30" height="60" as="geometry" />
        </mxCell>
        <mxCell id="EBFd8jl-EfVxJvivfDNM-67" style="edgeStyle=orthogonalEdgeStyle;rounded=0;orthogonalLoop=1;jettySize=auto;html=1;exitX=0.5;exitY=0.5;exitDx=0;exitDy=0;exitPerimeter=0;entryX=1;entryY=0.5;entryDx=0;entryDy=0;startArrow=classic;startFill=1;" edge="1" parent="1" source="EBFd8jl-EfVxJvivfDNM-36" target="EBFd8jl-EfVxJvivfDNM-32">
          <mxGeometry relative="1" as="geometry" />
        </mxCell>
        <mxCell id="EBFd8jl-EfVxJvivfDNM-36" value="&amp;nbsp;client-1" style="shape=umlActor;verticalLabelPosition=bottom;verticalAlign=top;html=1;outlineConnect=0;" vertex="1" parent="1">
          <mxGeometry x="690" y="593" width="30" height="60" as="geometry" />
        </mxCell>
        <mxCell id="EBFd8jl-EfVxJvivfDNM-43" style="edgeStyle=orthogonalEdgeStyle;rounded=0;orthogonalLoop=1;jettySize=auto;html=1;entryX=0;entryY=0.5;entryDx=0;entryDy=0;" edge="1" parent="1" source="EBFd8jl-EfVxJvivfDNM-1" target="EBFd8jl-EfVxJvivfDNM-21">
          <mxGeometry relative="1" as="geometry" />
        </mxCell>
        <mxCell id="EBFd8jl-EfVxJvivfDNM-46" style="edgeStyle=orthogonalEdgeStyle;rounded=0;orthogonalLoop=1;jettySize=auto;html=1;entryX=0.5;entryY=1;entryDx=0;entryDy=0;entryPerimeter=0;" edge="1" parent="1" source="EBFd8jl-EfVxJvivfDNM-28" target="EBFd8jl-EfVxJvivfDNM-11">
          <mxGeometry relative="1" as="geometry">
            <Array as="points">
              <mxPoint x="660" y="463" />
              <mxPoint x="660" y="573" />
              <mxPoint x="220" y="573" />
              <mxPoint x="220" y="653" />
            </Array>
          </mxGeometry>
        </mxCell>
        <mxCell id="EBFd8jl-EfVxJvivfDNM-47" style="edgeStyle=orthogonalEdgeStyle;rounded=0;orthogonalLoop=1;jettySize=auto;html=1;entryX=0.5;entryY=1;entryDx=0;entryDy=0;entryPerimeter=0;" edge="1" parent="1" source="EBFd8jl-EfVxJvivfDNM-28" target="EBFd8jl-EfVxJvivfDNM-14">
          <mxGeometry relative="1" as="geometry">
            <Array as="points">
              <mxPoint x="660" y="463" />
              <mxPoint x="660" y="573" />
              <mxPoint x="220" y="573" />
              <mxPoint x="220" y="743" />
            </Array>
          </mxGeometry>
        </mxCell>
        <mxCell id="EBFd8jl-EfVxJvivfDNM-49" style="edgeStyle=orthogonalEdgeStyle;rounded=0;orthogonalLoop=1;jettySize=auto;html=1;entryX=0;entryY=0.75;entryDx=0;entryDy=0;" edge="1" parent="1" source="EBFd8jl-EfVxJvivfDNM-14" target="EBFd8jl-EfVxJvivfDNM-32">
          <mxGeometry relative="1" as="geometry" />
        </mxCell>
        <mxCell id="EBFd8jl-EfVxJvivfDNM-58" style="edgeStyle=orthogonalEdgeStyle;rounded=0;orthogonalLoop=1;jettySize=auto;html=1;" edge="1" parent="1" source="EBFd8jl-EfVxJvivfDNM-55" target="EBFd8jl-EfVxJvivfDNM-5">
          <mxGeometry relative="1" as="geometry" />
        </mxCell>
        <mxCell id="EBFd8jl-EfVxJvivfDNM-55" value="server" style="rounded=0;whiteSpace=wrap;html=1;" vertex="1" parent="1">
          <mxGeometry x="40" y="393" width="120" height="60" as="geometry" />
        </mxCell>
        <mxCell id="EBFd8jl-EfVxJvivfDNM-57" style="edgeStyle=orthogonalEdgeStyle;rounded=0;orthogonalLoop=1;jettySize=auto;html=1;entryX=0.5;entryY=1;entryDx=0;entryDy=0;entryPerimeter=0;" edge="1" parent="1" source="EBFd8jl-EfVxJvivfDNM-55" target="EBFd8jl-EfVxJvivfDNM-1">
          <mxGeometry relative="1" as="geometry" />
        </mxCell>
        <mxCell id="EBFd8jl-EfVxJvivfDNM-59" style="edgeStyle=orthogonalEdgeStyle;rounded=0;orthogonalLoop=1;jettySize=auto;html=1;entryX=0.5;entryY=1;entryDx=0;entryDy=0;entryPerimeter=0;" edge="1" parent="1" source="EBFd8jl-EfVxJvivfDNM-55" target="EBFd8jl-EfVxJvivfDNM-8">
          <mxGeometry relative="1" as="geometry" />
        </mxCell>
        <mxCell id="EBFd8jl-EfVxJvivfDNM-60" style="edgeStyle=orthogonalEdgeStyle;rounded=0;orthogonalLoop=1;jettySize=auto;html=1;entryX=0;entryY=0.5;entryDx=0;entryDy=0;" edge="1" parent="1" source="EBFd8jl-EfVxJvivfDNM-5" target="EBFd8jl-EfVxJvivfDNM-21">
          <mxGeometry relative="1" as="geometry" />
        </mxCell>
        <mxCell id="EBFd8jl-EfVxJvivfDNM-61" style="edgeStyle=orthogonalEdgeStyle;rounded=0;orthogonalLoop=1;jettySize=auto;html=1;entryX=0;entryY=0.5;entryDx=0;entryDy=0;" edge="1" parent="1" source="EBFd8jl-EfVxJvivfDNM-8" target="EBFd8jl-EfVxJvivfDNM-21">
          <mxGeometry relative="1" as="geometry" />
        </mxCell>
        <mxCell id="EBFd8jl-EfVxJvivfDNM-62" value="" style="group;movable=1;resizable=1;rotatable=1;deletable=1;editable=1;locked=0;connectable=1;" vertex="1" connectable="0" parent="1">
          <mxGeometry x="530" y="383" width="110" height="110" as="geometry" />
        </mxCell>
        <mxCell id="EBFd8jl-EfVxJvivfDNM-21" value="" style="whiteSpace=wrap;html=1;aspect=fixed;" vertex="1" parent="EBFd8jl-EfVxJvivfDNM-62">
          <mxGeometry width="80" height="80" as="geometry" />
        </mxCell>
        <mxCell id="EBFd8jl-EfVxJvivfDNM-26" value="" style="whiteSpace=wrap;html=1;aspect=fixed;" vertex="1" parent="EBFd8jl-EfVxJvivfDNM-62">
          <mxGeometry x="10" y="10" width="80" height="80" as="geometry" />
        </mxCell>
        <mxCell id="EBFd8jl-EfVxJvivfDNM-27" value="" style="whiteSpace=wrap;html=1;aspect=fixed;" vertex="1" parent="EBFd8jl-EfVxJvivfDNM-62">
          <mxGeometry x="20" y="20" width="80" height="80" as="geometry" />
        </mxCell>
        <mxCell id="EBFd8jl-EfVxJvivfDNM-28" value="A-Sync processor" style="whiteSpace=wrap;html=1;aspect=fixed;" vertex="1" parent="EBFd8jl-EfVxJvivfDNM-62">
          <mxGeometry x="30" y="30" width="80" height="80" as="geometry" />
        </mxCell>
        <mxCell id="EBFd8jl-EfVxJvivfDNM-64" style="edgeStyle=orthogonalEdgeStyle;rounded=0;orthogonalLoop=1;jettySize=auto;html=1;entryX=0;entryY=0.25;entryDx=0;entryDy=0;" edge="1" parent="1" source="EBFd8jl-EfVxJvivfDNM-11" target="EBFd8jl-EfVxJvivfDNM-32">
          <mxGeometry relative="1" as="geometry" />
        </mxCell>
      </root>
    </mxGraphModel>
  </diagram>
</mxfile>
